<svg id="visual" viewBox="0 0 1920 1080" width="1920" height="1080" xmlns="http://www.w3.org/2000/svg" xmlns:xlink="http://www.w3.org/1999/xlink" version="1.1"><rect x="0" y="0" width="1920" height="1080" fill="#ffffff"></rect><defs><linearGradient id="grad1_0" x1="43.8%" y1="100%" x2="100%" y2="0%"><stop offset="14.444444444444446%" stop-color="#ffffff" stop-opacity="1"></stop><stop offset="85.55555555555554%" stop-color="#ffffff" stop-opacity="1"></stop></linearGradient></defs><defs><linearGradient id="grad2_0" x1="0%" y1="100%" x2="56.3%" y2="0%"><stop offset="14.444444444444446%" stop-color="#ffffff" stop-opacity="1"></stop><stop offset="85.55555555555554%" stop-color="#ffffff" stop-opacity="1"></stop></linearGradient></defs><g transform="translate(1920, 1080)"><path d="M-378 0C-341.8 -38.4 -305.6 -76.8 -287.3 -119C-269.1 -161.2 -268.8 -207.1 -248.9 -248.9C-229 -290.7 -189.4 -328.4 -144.7 -349.2C-99.9 -370.1 -49.9 -374 0 -378L0 0Z" fill="#ffd60a"></path></g><g transform="translate(0, 0)"><path d="M378 0C357.6 46.1 337.1 92.2 313.2 129.7C289.3 167.3 261.9 196.3 235.5 235.5C209.1 274.6 183.7 323.8 144.7 349.2C105.6 374.7 52.8 376.3 0 378L0 0Z" fill="#ffd60a"></path></g></svg>