<?xml version="1.0" encoding="utf-8"?>
<!-- Generator: Adobe Illustrator 27.5.0, SVG Export Plug-In . SVG Version: 6.00 Build 0)  -->
<svg version="1.1" xmlns="http://www.w3.org/2000/svg" xmlns:xlink="http://www.w3.org/1999/xlink" x="0px" y="0px"
	 viewBox="0 0 500 500" style="enable-background:new 0 0 500 500;" xml:space="preserve">
<g id="Background_Complete">
	<g>
		<rect y="382.398" style="fill:#EBEBEB;" width="500" height="0.25"/>
		<rect x="416.779" y="398.494" style="fill:#EBEBEB;" width="33.122" height="0.25"/>
		<rect x="322.527" y="401.208" style="fill:#EBEBEB;" width="8.693" height="0.25"/>
		<rect x="396.586" y="389.208" style="fill:#EBEBEB;" width="19.192" height="0.25"/>
		<rect x="52.459" y="390.888" style="fill:#EBEBEB;" width="43.193" height="0.25"/>
		<rect x="104.556" y="390.888" style="fill:#EBEBEB;" width="6.333" height="0.25"/>
		<rect x="131.471" y="395.111" style="fill:#EBEBEB;" width="93.676" height="0.25"/>
		<path style="fill:#EBEBEB;" d="M237.014,337.8H43.915c-3.147,0-5.708-2.561-5.708-5.708V60.66c0-3.147,2.561-5.708,5.708-5.708
			h193.099c3.146,0,5.707,2.561,5.707,5.708v271.432C242.721,335.239,240.16,337.8,237.014,337.8z M43.915,55.203
			c-3.01,0-5.458,2.448-5.458,5.458v271.432c0,3.01,2.448,5.458,5.458,5.458h193.099c3.009,0,5.457-2.448,5.457-5.458V60.66
			c0-3.009-2.448-5.458-5.457-5.458H43.915z"/>
		<path style="fill:#EBEBEB;" d="M453.31,337.8H260.212c-3.147,0-5.707-2.561-5.707-5.708V60.66c0-3.147,2.561-5.708,5.707-5.708
			H453.31c3.148,0,5.708,2.561,5.708,5.708v271.432C459.019,335.239,456.458,337.8,453.31,337.8z M260.212,55.203
			c-3.009,0-5.457,2.448-5.457,5.458v271.432c0,3.01,2.448,5.458,5.457,5.458H453.31c3.01,0,5.458-2.448,5.458-5.458V60.66
			c0-3.009-2.448-5.458-5.458-5.458H260.212z"/>
	</g>
	<g>
		<g>
			
				<rect x="63.394" y="74.317" transform="matrix(-1 -1.224647e-16 1.224647e-16 -1 500 348.6907)" style="fill:#FAFAFA;" width="373.213" height="200.056"/>
			<path style="fill:#FFFFFF;" d="M327.935,134.733c3.288-5.454,11.869-9.861,19.232-9.861c1.774,0,3.314,0.258,4.589,0.723
				c4.995-3.996,12.152-6.748,18.548-6.748c7.735,0,11.818,4.026,10.242,9.408c7.069,0.347,10.172,4.834,6.926,10.32
				c-3.379,5.713-12.359,10.344-20.057,10.344h-44.352c-5.457,0-7.939-3.283-5.543-7.333
				C319.37,138.456,323.593,135.785,327.935,134.733z"/>
			<path style="fill:#FFFFFF;" d="M238.461,108.846c2.007-3.329,7.245-6.02,11.74-6.02c1.083,0,2.023,0.158,2.801,0.441
				c3.049-2.439,7.418-4.119,11.323-4.119c4.722,0,7.214,2.457,6.252,5.743c4.315,0.212,6.209,2.951,4.228,6.3
				c-2.063,3.488-7.545,6.315-12.244,6.315h-27.074c-3.331,0-4.846-2.004-3.384-4.476
				C233.233,111.118,235.811,109.488,238.461,108.846z"/>
			<path style="fill:#FFFFFF;" d="M108.474,128.544c2.007-3.329,7.245-6.02,11.74-6.02c1.083,0,2.023,0.158,2.801,0.441
				c3.049-2.439,7.418-4.119,11.322-4.119c4.722,0,7.214,2.458,6.252,5.743c4.315,0.212,6.209,2.951,4.228,6.3
				c-2.063,3.488-7.545,6.315-12.244,6.315h-27.075c-3.331,0-4.846-2.004-3.384-4.476
				C103.246,130.816,105.824,129.186,108.474,128.544z"/>
			<g>
				<rect x="133.102" y="113.812" style="fill:#E6E6E6;" width="30.858" height="142.233"/>
				<polygon style="fill:#E6E6E6;" points="188.345,256.045 160.498,256.045 160.498,142.365 188.345,170.086 				"/>
				<rect x="92.723" y="160.792" style="fill:#E6E6E6;" width="30.858" height="95.253"/>
				<rect x="197.226" y="148.918" style="fill:#E6E6E6;" width="15.73" height="107.127"/>
				<rect x="219.654" y="176.281" style="fill:#E6E6E6;" width="15.73" height="79.764"/>
				<rect x="231.546" y="202.482" style="fill:#E6E6E6;" width="15.73" height="53.563"/>
				<rect x="296.833" y="202.482" style="fill:#E6E6E6;" width="15.73" height="53.563"/>
				<rect x="281.78" y="219.389" style="fill:#E6E6E6;" width="15.73" height="36.655"/>
				<rect x="72.666" y="202.482" style="fill:#E6E6E6;" width="15.73" height="53.563"/>
				<rect x="81.697" y="193.576" style="fill:#E6E6E6;" width="142.398" height="62.469"/>
				<rect x="170.165" y="231.006" style="fill:#E6E6E6;" width="142.398" height="25.039"/>
			</g>
			<g>
				
					<rect x="293.607" y="132.14" transform="matrix(-1 -1.224647e-16 1.224647e-16 -1 635.0192 406.5133)" style="fill:#F0F0F0;" width="47.805" height="142.233"/>
				<polygon style="fill:#F0F0F0;" points="255.83,274.373 298.97,274.373 298.97,160.693 255.83,188.414 				"/>
				
					<rect x="356.161" y="179.121" transform="matrix(-1 -1.224647e-16 1.224647e-16 -1 760.127 453.4942)" style="fill:#F0F0F0;" width="47.805" height="95.252"/>
				
					<rect x="217.703" y="167.247" transform="matrix(-1 -1.224647e-16 1.224647e-16 -1 459.7744 441.6199)" style="fill:#F0F0F0;" width="24.369" height="107.127"/>
				
					<rect x="182.957" y="202.889" transform="matrix(-1 -1.224647e-16 1.224647e-16 -1 390.2829 477.2622)" style="fill:#F0F0F0;" width="24.369" height="71.484"/>
				
					<rect x="164.535" y="220.81" transform="matrix(-1 -1.224647e-16 1.224647e-16 -1 353.4383 495.1832)" style="fill:#F0F0F0;" width="24.369" height="53.563"/>
				
					<rect x="63.394" y="220.81" transform="matrix(-1 -1.224647e-16 1.224647e-16 -1 151.1562 495.1832)" style="fill:#F0F0F0;" width="24.369" height="53.563"/>
				
					<rect x="86.713" y="237.718" transform="matrix(-1 -1.224647e-16 1.224647e-16 -1 197.7948 512.0912)" style="fill:#F0F0F0;" width="24.369" height="36.655"/>
				
					<rect x="410.67" y="220.81" transform="matrix(-1 -1.224647e-16 1.224647e-16 -1 845.7085 495.1832)" style="fill:#F0F0F0;" width="24.369" height="53.563"/>
				
					<rect x="200.447" y="211.904" transform="matrix(-1 -1.224647e-16 1.224647e-16 -1 621.4936 486.2775)" style="fill:#F0F0F0;" width="220.601" height="62.469"/>
				
					<rect x="63.394" y="249.334" transform="matrix(-1 -1.224647e-16 1.224647e-16 -1 347.388 523.7073)" style="fill:#F0F0F0;" width="220.601" height="25.039"/>
			</g>
			
				<rect x="435.039" y="74.317" transform="matrix(-1 -1.224647e-16 1.224647e-16 -1 871.645 348.6907)" style="fill:#EBEBEB;" width="1.568" height="200.056"/>
		</g>
		<g>
			<g>
				<path style="fill:#E0E0E0;" d="M91.155,356.308c-0.502,0-1.009-0.164-1.433-0.501c-0.998-0.792-1.165-2.244-0.372-3.241
					c1.308-1.647-1.869-5.468-5.232-9.514c-7.163-8.616-17.989-21.639-3.204-36.571c9.331-9.426,9.125-13.326,8.604-14.566
					c-0.919-2.185-5.182-2.668-6.664-2.668c-0.018,0-0.032,0.001-0.055,0.001c-1.266,0-2.299-1.021-2.311-2.288
					c-0.011-1.272,1.007-2.313,2.279-2.327c0.865-0.007,8.703,0.064,10.997,5.477c1.986,4.69-1.145,11.106-9.571,19.618
					c-11.839,11.957-3.704,21.742,3.474,30.375c4.596,5.528,8.937,10.75,5.297,15.333C92.508,356.009,91.834,356.308,91.155,356.308
					z"/>
				<polygon style="fill:#F5F5F5;" points="57.768,335.518 106.991,335.518 96.09,382.398 68.669,382.398 				"/>
				<path style="fill:#EBEBEB;" d="M57.256,337.612h50.248c1.151,0,2.094-0.942,2.094-2.094l0,0c0-1.151-0.942-2.094-2.094-2.094
					H57.256c-1.152,0-2.094,0.942-2.094,2.094l0,0C55.162,336.67,56.104,337.612,57.256,337.612z"/>
			</g>
			<g>
				<path style="fill:#E0E0E0;" d="M99.677,286.137L53.167,301.5c0,0-16.846-11.384-4.61-16.499
					c-5.816-9.928-6.558-29.288,12.169-34.906c18.727-5.618,17.42,21.743,17.42,21.743s23.096-24.429,22.022,4.59
					C104.561,275.216,123.246,279.638,99.677,286.137z"/>
				<path style="fill:#E6E6E6;" d="M60.863,307.17h56.399c0,0,14.873-10.502-0.707-9.977c3.093-13.394-5.627-28.063-25.304-28.626
					s-12.76,21.273-12.76,21.273s-33.059-7.879-23.055,8.404C39.05,299.031,47.526,303.23,60.863,307.17z"/>
				<path style="fill:#E0E0E0;" d="M105.891,310.203l-44.303,1.599c-2.171,0.078-4.316-0.992-5.831-3.137
					c-1.674-2.372-2.111-5.326,4.969-6.193c-2.268-7.006,2.745-19.21,21.059-20.15c18.314-0.94,9.132,15.985,9.132,15.985
					s27.714-12.1,18.255,5.894C113.439,304.047,128.772,309.377,105.891,310.203z"/>
			</g>
		</g>
		<g>
			<rect x="159.24" y="297.046" style="fill:#F0F0F0;" width="232.401" height="4.455"/>
			
				<rect x="391.641" y="297.046" transform="matrix(-1 -1.224647e-16 1.224647e-16 -1 808.4202 598.5455)" style="fill:#E6E6E6;" width="25.138" height="4.455"/>
			
				<rect x="162.732" y="301.5" transform="matrix(-1 -1.224647e-16 1.224647e-16 -1 575.6285 605.2273)" style="fill:#E0E0E0;" width="250.165" height="2.227"/>
			
				<rect x="124.072" y="341.274" transform="matrix(6.123234e-17 -1 1 6.123234e-17 -178.5415 506.4705)" style="fill:#E0E0E0;" width="79.785" height="2.465"/>
			
				<rect x="350.516" y="341.273" transform="matrix(6.123234e-17 -1 1 6.123234e-17 47.9026 732.9146)" style="fill:#E0E0E0;" width="79.785" height="2.465"/>
			
				<rect x="371.772" y="341.273" transform="matrix(6.123234e-17 -1 1 6.123234e-17 69.158 754.17)" style="fill:#E0E0E0;" width="79.785" height="2.465"/>
			
				<rect x="145.327" y="341.274" transform="matrix(6.123234e-17 -1 1 6.123234e-17 -157.2861 527.7258)" style="fill:#E0E0E0;" width="79.785" height="2.465"/>
		</g>
	</g>
</g>
<g id="Background_Simple" style="display:none;">
	<g style="display:inline;">
		<path style="fill:#407BFF;" d="M279.621,172.542c57.808,2.739,186.065-0.566,118.089,126.771
			c-18.794,35.205-62.685,58.292-103.284,50.581c-21.259-4.038-37.114-20.288-57.445-26.463
			c-18.069-5.488-36.612,0.512-54.587-6.207c-59.776-22.343-105.78-134.59-70.257-184.594c19.237-27.079,59.662-37.93,80.178-13.565
			C214.797,145.764,215.853,169.52,279.621,172.542z"/>
		<path style="opacity:0.9;fill:#FFFFFF;" d="M279.621,172.542c57.808,2.739,186.065-0.566,118.089,126.771
			c-18.794,35.205-62.685,58.292-103.284,50.581c-21.259-4.038-37.114-20.288-57.445-26.463
			c-18.069-5.488-36.612,0.512-54.587-6.207c-59.776-22.343-105.78-134.59-70.257-184.594c19.237-27.079,59.662-37.93,80.178-13.565
			C214.797,145.764,215.853,169.52,279.621,172.542z"/>
	</g>
</g>
<g id="Shadow_1_">
	<ellipse id="_x3C_Path_x3E__360_" style="fill:#F5F5F5;" cx="250" cy="416.238" rx="193.889" ry="11.323"/>
</g>
<g id="Table">
	<g>
		<g>
			<rect x="243.316" y="254.579" style="fill:#407BFF;" width="151.291" height="4.275"/>
			<rect x="359.501" y="254.579" style="opacity:0.2;" width="35.106" height="4.275"/>
			<g>
				<polygon style="fill:#407BFF;" points="363.842,418.74 355.938,258.854 357.921,258.854 365.825,418.74 				"/>
				<polygon style="opacity:0.7;fill:#FFFFFF;" points="363.842,418.74 355.938,258.854 357.921,258.854 365.825,418.74 				"/>
			</g>
			<g>
				<polygon style="fill:#407BFF;" points="398.948,418.74 391.044,258.854 393.026,258.854 400.931,418.74 				"/>
				<polygon style="fill:#407BFF;" points="398.948,418.74 391.044,258.854 393.026,258.854 400.931,418.74 				"/>
				<polygon style="opacity:0.7;fill:#FFFFFF;" points="398.948,418.74 391.044,258.854 393.026,258.854 400.931,418.74 				"/>
			</g>
			<g>
				<polygon style="fill:#407BFF;" points="274.082,418.74 281.986,258.854 280.003,258.854 272.099,418.74 				"/>
				<polygon style="opacity:0.7;fill:#FFFFFF;" points="274.082,418.74 281.986,258.854 280.003,258.854 272.099,418.74 				"/>
			</g>
			<g>
				<polygon style="fill:#407BFF;" points="238.976,418.74 246.88,258.854 244.897,258.854 236.993,418.74 				"/>
				<polygon style="opacity:0.7;fill:#FFFFFF;" points="238.976,418.74 246.88,258.854 244.897,258.854 236.993,418.74 				"/>
			</g>
		</g>
		<g>
			<path style="fill:#407BFF;" d="M332.399,221.962h48.639c1.574,0,2.665,1.287,2.426,2.861l-4.089,26.894
				c-0.239,1.574-1.723,2.861-3.296,2.861H327.44c-1.574,0-2.665-1.287-2.426-2.861l4.089-26.894
				C329.342,223.249,330.826,221.962,332.399,221.962z"/>
			<g>
				<path style="fill:#407BFF;" d="M331.648,221.962h48.639c1.574,0,2.665,1.287,2.426,2.861l-4.089,26.894
					c-0.239,1.574-1.723,2.861-3.296,2.861h-48.639c-1.574,0-2.665-1.287-2.426-2.861l4.089-26.894
					C328.591,223.249,330.075,221.962,331.648,221.962z"/>
				<path style="opacity:0.2;fill:#FFFFFF;" d="M331.648,221.962h48.639c1.574,0,2.665,1.287,2.426,2.861l-4.089,26.894
					c-0.239,1.574-1.723,2.861-3.296,2.861h-48.639c-1.574,0-2.665-1.287-2.426-2.861l4.089-26.894
					C328.591,223.249,330.075,221.962,331.648,221.962z"/>
			</g>
			<path style="opacity:0.8;fill:#FFFFFF;" d="M326.689,253.72c-0.501,0-0.938-0.189-1.232-0.53
				c-0.301-0.35-0.424-0.828-0.346-1.344l4.089-26.894c0.176-1.156,1.297-2.132,2.448-2.132h48.639c0.501,0,0.938,0.188,1.232,0.53
				c0.301,0.35,0.424,0.828,0.346,1.344l-4.089,26.894c-0.176,1.155-1.297,2.132-2.448,2.132H326.689z"/>
			<path style="fill:#407BFF;" d="M312.487,253.506h64.458c0.59,0,0.999,0.483,0.91,1.073h-66.604
				C311.341,253.988,311.897,253.506,312.487,253.506z"/>
		</g>
	</g>
</g>
<g id="Character_1_">
	<g>
		<g>
			<g>
				<polygon style="fill:#FFB573;" points="259.256,405.78 252.889,409.371 245.01,394.109 251.377,390.518 				"/>
				<path style="fill:#263238;" d="M252.115,408.108l7.421-3.649c0.27-0.133,0.566-0.045,0.712,0.21l3.247,5.694
					c0.337,0.591,0.049,1.448-0.579,1.743c-2.605,1.226-3.914,1.681-7.178,3.286c-2.008,0.987-6.785,3.451-9.558,4.814
					c-2.712,1.333-4.042-1.417-2.989-2.243c4.721-3.704,6.841-6.508,7.986-8.889C251.384,408.644,251.72,408.302,252.115,408.108z"
					/>
				<g>
					<polygon style="opacity:0.2;" points="251.381,390.522 245.011,394.113 249.075,401.979 255.639,398.762 					"/>
				</g>
				<path style="fill:#263238;" d="M246.189,240.929c0,0-20.572,41.351-26.736,61.54c-6.75,22.108,25.319,96.939,25.319,96.939
					l11.705-5.129c0,0-20.971-74.11-17.342-82.331c10.022-22.701,33.355-70.537,33.355-70.537L246.189,240.929z"/>
				<path style="opacity:0.3;" d="M253.931,265.719c-5.614,9.414-7.98,26.375-8.349,37.405c3.168-6.82,6.565-13.921,9.753-20.519
					c0.002-0.011,0.002-0.011,0.002-0.011c2.142-6.291,4.225-12.35,6.162-17.545C261.064,261.474,258.181,258.565,253.931,265.719z"
					/>
				<polygon style="fill:#407BFF;" points="257.992,395.147 245.204,401.849 241.53,397.522 256.666,389.457 				"/>
				<path style="fill:#407BFF;" d="M250.34,410.41c0.61-0.3,1.223-0.758,1.644-1.102c0.053-0.043,0.075-0.113,0.057-0.178
					c-0.018-0.066-0.073-0.114-0.139-0.124c-0.283-0.043-2.781-0.402-3.432,0.312c-0.151,0.165-0.201,0.377-0.144,0.612
					c0.094,0.388,0.297,0.638,0.604,0.741C249.318,410.802,249.828,410.661,250.34,410.41z M251.451,409.293
					c-1.066,0.816-1.954,1.208-2.413,1.053c-0.19-0.064-0.314-0.226-0.38-0.496c-0.03-0.125-0.01-0.22,0.064-0.3
					C249.072,409.166,250.445,409.182,251.451,409.293z"/>
				<path style="fill:#407BFF;" d="M251.951,409.329c0.024-0.012,0.046-0.029,0.062-0.052c0.035-0.047,0.043-0.109,0.022-0.165
					c-0.033-0.084-0.819-2.056-1.801-2.371c-0.265-0.085-0.52-0.049-0.758,0.106c-0.286,0.186-0.403,0.449-0.329,0.74
					c0.202,0.795,1.865,1.69,2.715,1.758C251.893,409.349,251.923,409.342,251.951,409.329z M249.732,407.096
					c0.128-0.063,0.258-0.072,0.397-0.027c0.586,0.187,1.175,1.249,1.465,1.885c-0.813-0.203-1.984-0.928-2.116-1.45
					c-0.026-0.099-0.027-0.231,0.184-0.368C249.685,407.12,249.708,407.107,249.732,407.096z"/>
			</g>
			<path style="fill:#263238;" d="M260.1,185.493c-1.279,2.589-2.571,4.862-3.989,7.205c-1.423,2.308-2.881,4.596-4.477,6.812
				c-0.784,1.115-1.612,2.211-2.43,3.31c-0.872,1.075-1.691,2.167-2.612,3.218c-1.759,2.138-3.72,4.178-5.796,6.153
				c-0.501,0.501-1.087,0.968-1.627,1.451c-0.563,0.474-1.069,0.968-1.698,1.407l-1.813,1.338c-0.198,0.137-0.144,0.126-0.759,0.527
				c-0.476,0.301-0.991,0.546-1.522,0.736c-1.064,0.379-2.2,0.509-3.316,0.397c-1.115-0.113-2.221-0.475-3.209-1.085
				c-0.492-0.308-0.954-0.672-1.363-1.086c-0.2-0.209-0.402-0.423-0.573-0.652c-0.165-0.212-0.383-0.525-0.393-0.568
				c-0.452-0.82-0.929-1.68-1.201-2.43c-0.664-1.568-1.041-2.996-1.4-4.433c-0.657-2.851-0.994-5.581-1.209-8.307
				c-0.199-2.736-0.282-5.385-0.166-8.163c0.074-1.778,1.576-3.16,3.354-3.086c1.452,0.06,2.64,1.073,2.987,2.41l0.028,0.112
				c1.247,4.827,2.54,9.877,4.289,14.149c0.446,1.03,0.894,2.078,1.39,2.838c0.237,0.45,0.482,0.676,0.689,0.975
				c0.066,0.1-0.045-0.09-0.112-0.172c-0.078-0.094-0.155-0.202-0.246-0.291c-0.177-0.186-0.378-0.355-0.594-0.491
				c-0.428-0.28-0.899-0.444-1.367-0.502c-0.469-0.059-0.944-0.01-1.401,0.136c-0.411,0.092-1.109,0.622-0.644,0.228l1.2-1.136
				c0.789-0.781,1.584-1.621,2.356-2.476c3.064-3.529,5.899-7.523,8.569-11.676c1.329-2.081,2.632-4.198,3.898-6.338
				c1.258-2.113,2.531-4.363,3.659-6.38l0.079-0.141c1.74-3.11,5.672-4.221,8.783-2.481
				C260.474,178.686,261.604,182.435,260.1,185.493z"/>
			<g>
				<path style="opacity:0.3;" d="M242.438,202.992c-0.521,2.328-0.973,5.895-0.997,8.97c0.325-0.321,0.639-0.644,0.952-0.967
					c2.531-2.57,4.765-5.275,6.846-8.048c0.87-1.145,1.713-2.316,2.522-3.492c0.496-1.27,0.949-2.546,1.382-3.836
					c0.133-0.428,0.263-0.835,0.396-1.263C250.293,192.78,244.389,194.37,242.438,202.992z"/>
			</g>
			<path style="fill:#FFB573;" d="M226.061,188.071l-0.808-5.169l-6.431,2.955c0,0,0.638,2.418,1.934,4.941
				c0.817,1.589,2.923,1.951,4.195,0.697l0,0C225.856,190.602,226.27,189.325,226.061,188.071z"/>
			<polygon style="fill:#FFB573;" points="221.63,179.433 216.829,182.738 218.822,185.857 225.253,182.902 			"/>
			<g>
				<polygon style="fill:#FFB573;" points="238.844,415.483 231.669,413.839 234.547,397.01 241.721,398.655 				"/>
				<path style="fill:#263238;" d="M231.484,412.922l8.06,1.848c0.293,0.067,0.468,0.322,0.42,0.612l-1.071,6.467
					c-0.111,0.671-0.875,1.155-1.548,0.988c-2.795-0.692-4.098-1.164-7.643-1.977c-2.181-0.5-8.24-1.651-11.252-2.341
					c-2.945-0.675-2.243-3.648-0.905-3.626c6,0.103,10.211-0.687,12.602-1.813C230.578,412.876,231.055,412.823,231.484,412.922z"/>
				<g>
					<polygon style="opacity:0.2;" points="241.722,398.66 234.544,397.014 233.065,405.689 240.242,407.335 					"/>
				</g>
				<path style="fill:#263238;" d="M260.563,241.193c0,0-11.856,49.297-15.402,70.105c-3.883,22.786-14.699,91.619-14.699,91.619
					l13.141,3.013c0,0,16.389-65.643,22.287-87.733c6.401-23.975,19.661-52.967,19.661-76.546
					C277.61,241.65,260.563,241.193,260.563,241.193z"/>
				<polygon style="fill:#407BFF;" points="244.132,406.051 228.11,402.377 228.465,397.21 245.781,402 				"/>
				<path style="fill:#407BFF;" d="M228.654,413.588c0.663,0.152,1.427,0.184,1.971,0.182c0.068,0,0.129-0.04,0.156-0.102
					c0.027-0.062,0.015-0.134-0.03-0.184c-0.193-0.212-1.905-2.066-2.86-1.923c-0.221,0.033-0.394,0.165-0.498,0.384
					c-0.172,0.36-0.172,0.682,0.001,0.955C227.614,413.249,228.098,413.461,228.654,413.588z M230.221,413.422
					c-1.342-0.039-2.278-0.295-2.537-0.705c-0.107-0.17-0.101-0.374,0.018-0.625c0.055-0.116,0.131-0.177,0.239-0.193
					C228.455,411.824,229.51,412.702,230.221,413.422z"/>
				<path style="fill:#407BFF;" d="M230.586,413.766c0.026,0.006,0.054,0.006,0.081-0.001c0.057-0.015,0.103-0.057,0.121-0.114
					c0.027-0.086,0.661-2.112,0.097-2.976c-0.152-0.233-0.373-0.366-0.655-0.396c-0.339-0.036-0.596,0.095-0.722,0.367
					c-0.345,0.745,0.382,2.487,0.999,3.077C230.529,413.745,230.556,413.759,230.586,413.766z M230.272,410.633
					c0.139,0.032,0.246,0.107,0.325,0.229c0.337,0.515,0.125,1.71-0.051,2.387c-0.503-0.67-0.954-1.971-0.728-2.459
					c0.043-0.093,0.125-0.197,0.375-0.17C230.221,410.623,230.247,410.627,230.272,410.633z"/>
			</g>
			<path style="fill:#FFFFFF;" d="M250.378,181.195c0.787-2.486,2.957-4.351,5.521-4.822c2.012-0.35,2.953-0.654,5.529-0.845
				c4.435-0.316,11.708-0.024,16.727,0.306c2.916,0.193,5.888,0.604,8.254,0.995l0.085,0.014c2.609,0.431,4.344,2.931,3.833,5.526
				c-1.333,6.758-3.526,18.679-4.167,29.768c-0.842,14.554-0.268,26.003-0.61,29.512l-39.361-0.721
				C244.445,205.341,247.83,189.245,250.378,181.195z"/>
			<path style="fill:#263238;" d="M277.053,175.117c-2.042,7.676-14.64,21.259-16.173,42.617
				c0.558,11.709,0.092,19.692,1.533,27.539l24.101-0.649c0.366-3.707-2.363-15.64-0.57-27.729
				c1.739-11.72,4.206-27.656,5.607-34.78c0.537-2.741-1.292-5.376-4.044-5.834l-0.089-0.011c-2.495-0.413-5.625-0.848-8.699-1.053
				C278.184,175.178,277.628,175.148,277.053,175.117z"/>
			<path style="opacity:0.2;fill:#FFFFFF;" d="M282.668,233.099c-0.076,0-0.15-0.034-0.2-0.1c-4.191-5.586-5.805-10.861-5.82-10.914
				c-0.04-0.132,0.035-0.271,0.167-0.311c0.139-0.04,0.272,0.036,0.311,0.167c0.016,0.052,1.606,5.246,5.742,10.756
				c0.083,0.11,0.061,0.268-0.05,0.351C282.774,233.082,282.721,233.099,282.668,233.099z"/>
			<path style="opacity:0.3;" d="M285.687,191.094c-1.718,6.993-1.127,16.686,0.301,25.531c1.473-9.927,3.458-22.809,4.874-30.784
				C289.189,184.703,287.047,185.506,285.687,191.094z"/>
			<path style="fill:#263238;" d="M248.355,181.331c1.048-2.881,3.369-5.019,6.069-5.516c2.032-0.35,6.914-0.688,7.927-0.67
				c-2.241,7.261-0.932,28.519,0.061,45.283c-2.974,8.458-2.778,14.668-2.824,24.846l-16.487-1.444
				C241.304,206.525,245.891,188.106,248.355,181.331z"/>
			<path style="fill:#FFB573;" d="M262.224,175.483c4.886-1.062,5.794-4.055,5.527-7.366c-0.055-0.805-0.178-1.642-0.342-2.469
				l6.188-4.951l4.545-3.631c-1.34,5.368-2.919,15.16,0.658,18.82c0,0-3.107,4.916-11.424,4.314
				C260.351,179.691,262.224,175.483,262.224,175.483z"/>
			<polygon style="fill:#E0E0E0;" points="269.522,178.96 268.145,180.241 272.404,181.855 271.886,180.221 			"/>
			<path style="fill:#F5F5F5;" d="M271.073,184.055c0,0,0.029-4.196-1.551-5.095c5.645-1.508,8.444-4.615,8.444-4.615l2.533,1.015
				C280.499,175.36,279.572,180.19,271.073,184.055z"/>
			<polygon style="fill:#E0E0E0;" points="267.169,178.633 268.145,180.241 263.606,180.631 264.551,179.2 			"/>
			<path style="fill:#F5F5F5;" d="M263.318,183.194c0,0,0.413-2.943,3.852-4.561c-2.443-0.734-2.508-4.123-2.508-4.123l-2.395,0.456
				C262.267,174.966,259.824,179.486,263.318,183.194z"/>
			<path style="opacity:0.2;" d="M267.409,165.648c0.164,0.827,0.287,1.664,0.342,2.469c2.282-0.415,5.364-2.782,5.724-5.099
				c0.135-0.871,0.171-1.715,0.122-2.321L267.409,165.648z"/>
			<path style="fill:#263238;" d="M259.057,141.144c-2.496,4.508,0.339,8.518,0.339,8.518l4.907-6.101L259.057,141.144z"/>
			<path style="fill:#FFB573;" d="M278.826,147.91c-0.346,7.317-0.178,11.604-3.805,15.528c-5.455,5.901-14.491,2.997-16.33-4.201
				c-1.655-6.479-0.811-17.356,6.277-20.605C271.953,135.43,279.172,140.593,278.826,147.91z"/>
			<path style="fill:#263238;" d="M283.329,140.37c-3.16-10.119-34.669-15.352-22.45,1.775l13.403-1.837l0.496,3.439
				c0.558,2.974,2.742,7.854,2.742,7.854l-0.558,3.114l0.574,5.057c0,0,5.57-6.186,8.395-9.111
				C290.146,146.299,285.87,140.122,283.329,140.37z"/>
			<path style="fill:#263238;" d="M259.316,142.37c3.508,2.582,12.655,3.067,12.655,3.067s-1.115-2.417-2.788-3.393
				c3.671,2.37,6.925,5.112,13.059,5.344c-1.255-3.346-3.918-7.688-9.577-10.224C265.281,133.856,252.75,137.537,259.316,142.37z"/>
			<path style="fill:#263238;" d="M281.855,131.409c0,0-1.359,0.924-1.67,4.118c-0.31,3.194,2.935,7.335,2.935,7.335l0.799-2.05
				C280.891,136.904,281.855,131.409,281.855,131.409z"/>
			<path style="fill:#FFB573;" d="M280.876,153.427c-0.689,1.606-1.939,2.804-3.132,3.392c-1.795,0.884-2.74-0.741-2.282-2.718
				c0.413-1.779,1.843-4.383,3.664-4.438C280.919,149.609,281.664,151.59,280.876,153.427z"/>
			<path style="fill:#263238;" d="M267.653,150.626c0.008,0.594-0.299,1.091-0.687,1.11c-0.388,0.019-0.709-0.447-0.717-1.041
				c-0.008-0.594,0.299-1.091,0.687-1.11C267.324,149.566,267.645,150.032,267.653,150.626z"/>
			<path style="fill:#263238;" d="M260.95,150.952c0.008,0.594-0.299,1.091-0.687,1.11c-0.388,0.019-0.709-0.447-0.717-1.042
				c-0.008-0.594,0.299-1.091,0.687-1.11C260.621,149.891,260.942,150.358,260.95,150.952z"/>
			<path style="fill:#ED893E;" d="M263.24,151.004c0,0-1.301,3.492-2.762,5.218c1.063,0.93,2.84,0.395,2.84,0.395L263.24,151.004z"
				/>
			<path style="fill:#263238;" d="M265.762,158.099c2.307-0.389,3.354-2.044,3.401-2.12c0.051-0.082,0.025-0.189-0.057-0.24
				c-0.082-0.051-0.189-0.025-0.24,0.057c-0.012,0.019-1.202,1.905-3.81,2.029c-0.097,0.004-0.17,0.086-0.165,0.183
				c0.004,0.096,0.086,0.17,0.183,0.165C265.315,158.161,265.544,158.136,265.762,158.099z"/>
			<path style="fill:#263238;" d="M270.667,148.08c0.056-0.01,0.111-0.033,0.159-0.071c0.15-0.12,0.175-0.34,0.055-0.49
				c-1.189-1.49-2.797-1.316-2.865-1.308c-0.182,0.004-0.328,0.195-0.305,0.387c0.023,0.191,0.196,0.327,0.387,0.305
				c0.067-0.007,1.304-0.119,2.238,1.051C270.418,148.057,270.546,148.101,270.667,148.08z"/>
			<path style="fill:#263238;" d="M258.01,148.87c0.11-0.019,0.209-0.089,0.259-0.198c0.663-1.441,1.938-1.679,1.951-1.681
				c0.19-0.033,0.317-0.214,0.284-0.403c-0.033-0.189-0.213-0.316-0.401-0.284c-0.001,0-0.001,0-0.002,0
				c-0.067,0.012-1.651,0.307-2.464,2.076c-0.081,0.175-0.004,0.382,0.171,0.462C257.873,148.873,257.944,148.881,258.01,148.87z"/>
			<path style="fill:#263238;" d="M292.668,180.625c0.671,1.496,1.244,2.852,1.796,4.29c0.558,1.419,1.094,2.842,1.618,4.271
				c1.022,2.868,1.966,5.769,2.8,8.721c1.664,5.891,3.014,12.014,3.457,18.458c0.407,6.255,0.252,12.177-0.01,18.154
				c-0.291,5.961-0.763,11.868-1.544,17.802c-0.232,1.762-1.849,3.003-3.611,2.771c-1.497-0.197-2.618-1.394-2.779-2.831
				l-0.003-0.032c-0.653-5.835-1.163-11.701-1.697-17.509c-0.258-2.907-0.538-5.801-0.832-8.67c-0.27-2.869-0.634-5.719-1.027-8.43
				c-0.819-5.27-2.405-10.608-4.154-15.97c-0.902-2.672-1.836-5.349-2.826-8.013c-0.948-2.651-2.047-5.368-3.028-7.876l-0.057-0.145
				c-1.299-3.319,0.338-7.063,3.657-8.361C287.644,175.998,291.265,177.511,292.668,180.625z"/>
			<path style="fill:#FFB573;" d="M294.499,251.817l-4.168,1.96l7.069,2.531c0,0,4.787-1.512,2.544-4.149l-1.267-0.401
				C296.634,251.11,295.621,251.184,294.499,251.817z"/>
			<polygon style="fill:#FFB573;" points="287.943,258.301 295.41,259.725 297.401,256.308 290.331,253.777 			"/>
		</g>
	</g>
</g>
<g id="Chat">
	<g>
		<g>
			<rect x="141.27" y="85.109" style="fill:#407BFF;" width="33.554" height="1.115"/>
			<path style="fill:#407BFF;" d="M122.715,91.026l-0.813-0.764c3.12-3.323,7.396-5.154,12.041-5.154v1.115
				C129.611,86.224,125.622,87.93,122.715,91.026z"/>
			<path style="fill:#407BFF;" d="M133.944,89.013h64.133c7.361,0,13.765,6.023,14.23,13.384l2.428,38.407l0.787,12.455
				l-13.242-12.455h-65.063c-7.362,0-13.765-6.023-14.23-13.384l-1.582-25.023C120.94,95.036,126.582,89.013,133.944,89.013z"/>
			<path style="fill:#FFFFFF;" d="M137.334,107.354h60.602c1.227,0,2.167-1.004,2.09-2.231l0,0
				c-0.078-1.227-1.145-2.231-2.372-2.231h-60.602c-1.227,0-2.167,1.004-2.09,2.231l0,0
				C135.04,106.351,136.107,107.354,137.334,107.354z"/>
			<path style="fill:#FFFFFF;" d="M137.984,117.63h60.602c1.227,0,2.167-1.004,2.09-2.231l0,0c-0.078-1.227-1.145-2.231-2.372-2.231
				h-60.602c-1.227,0-2.167,1.004-2.09,2.231l0,0C135.69,116.626,136.757,117.63,137.984,117.63z"/>
			<path style="fill:#FFFFFF;" d="M159.267,127.905h39.967c1.227,0,2.167-1.004,2.09-2.231l0,0
				c-0.077-1.227-1.145-2.231-2.372-2.231h-39.967c-1.227,0-2.167,1.004-2.09,2.231l0,0
				C156.973,126.901,158.04,127.905,159.267,127.905z"/>
		</g>
		<g>
			<g>
				<path style="fill:#407BFF;" d="M156.688,153.26H92.554c-7.362,0-13.004,6.023-12.538,13.384l1.78,28.152l0.787,12.455
					l11.667-12.455h65.063c7.362,0,13.004-6.023,12.538-13.384l-0.933-14.768C170.453,159.283,164.049,153.26,156.688,153.26z"/>
				<path style="opacity:0.5;fill:#FFFFFF;" d="M156.688,153.26H92.554c-7.362,0-13.004,6.023-12.538,13.384l1.78,28.152
					l0.787,12.455l11.667-12.455h65.063c7.362,0,13.004-6.023,12.538-13.384l-0.933-14.768
					C170.453,159.283,164.049,153.26,156.688,153.26z"/>
			</g>
			<path style="fill:#FFFFFF;" d="M155.616,171.601H95.015c-1.227,0-2.294-1.004-2.372-2.231l0,0
				c-0.077-1.227,0.863-2.231,2.09-2.231h60.602c1.227,0,2.294,1.004,2.372,2.231l0,0
				C157.784,170.597,156.843,171.601,155.616,171.601z"/>
			<path style="fill:#FFFFFF;" d="M135.633,181.897H95.665c-1.227,0-2.294-1.004-2.372-2.231l0,0
				c-0.077-1.227,0.863-2.231,2.09-2.231h39.967c1.227,0,2.294,1.004,2.372,2.231l0,0C137.8,180.893,136.86,181.897,135.633,181.897
				z"/>
		</g>
		<g>
			<g>
				<path style="fill:#407BFF;" d="M141.418,207.251h64.133c7.361,0,13.765,6.023,14.23,13.384l1.899,30.04l0.787,12.455
					l-13.242-12.455h-65.063c-7.361,0-13.765-6.023-14.23-13.384l-1.053-16.656C128.415,213.274,134.057,207.251,141.418,207.251z"
					/>
			</g>
			<g>
				<path style="fill:#FFFFFF;" d="M170.047,227.358c0.164,2.601,2.406,4.709,5.007,4.709c2.601,0,4.576-2.108,4.412-4.709
					c-0.164-2.601-2.406-4.709-5.007-4.709C171.857,222.649,169.882,224.757,170.047,227.358z"/>
				<path style="fill:#FFFFFF;" d="M154.338,228.939c0.164,2.601,2.406,4.709,5.007,4.709s4.576-2.108,4.412-4.709
					c-0.164-2.601-2.406-4.709-5.007-4.709C156.149,224.23,154.174,226.338,154.338,228.939z"/>
				<path style="fill:#FFFFFF;" d="M186.105,231.31c0.164,2.601,2.406,4.709,5.007,4.709s4.576-2.108,4.412-4.709
					c-0.165-2.601-2.406-4.709-5.007-4.709C187.915,226.601,185.94,228.709,186.105,231.31z"/>
			</g>
		</g>
	</g>
</g>
</svg>
