<svg xmlns="http://www.w3.org/2000/svg" width="24" height="24" viewBox="0 0 24 24" version="1.1"><path d="M 8.241 1.159 C 7.559 1.841, 7 3.644, 7 5.165 C 7 8.155, 9.329 10, 13.106 10 C 14.336 10, 16.165 10.745, 17.171 11.655 C 18.544 12.897, 19 12.976, 19 11.969 C 19 11.232, 19.985 9.581, 21.188 8.300 C 22.988 6.384, 23.206 5.486, 22.418 3.235 C 21.536 0.718, 20.983 0.477, 15.471 0.209 C 11.676 0.024, 9.028 0.372, 8.241 1.159 M 11 5 C 11 5.733, 11.300 6.033, 11.667 5.667 C 12.033 5.300, 12.033 4.700, 11.667 4.333 C 11.300 3.967, 11 4.267, 11 5 M 14 5 C 14 5.733, 14.300 6.033, 14.667 5.667 C 15.033 5.300, 15.033 4.700, 14.667 4.333 C 14.300 3.967, 14 4.267, 14 5 M 17 5 C 17 5.550, 17.450 6, 18 6 C 18.550 6, 19 5.550, 19 5 C 19 4.450, 18.550 4, 18 4 C 17.450 4, 17 4.450, 17 5 M 5 14 C 5 14.733, 5.300 15.033, 5.667 14.667 C 6.033 14.300, 6.033 13.700, 5.667 13.333 C 5.300 12.967, 5 13.267, 5 14 M 9 14 C 9 14.733, 9.300 15.033, 9.667 14.667 C 10.033 14.300, 10.033 13.700, 9.667 13.333 C 9.300 12.967, 9 13.267, 9 14 M 12 14 C 12 14.733, 12.300 15.033, 12.667 14.667 C 13.033 14.300, 13.033 13.700, 12.667 13.333 C 12.300 12.967, 12 13.267, 12 14" stroke="none" fill="#f4507f" fill-rule="evenodd"/><path d="M 4.111 3.560 C -1.303 8.115, -1.279 16.069, 4.163 21.152 C 9.656 26.284, 18.736 24.502, 22.880 17.479 C 25.040 13.819, 25.845 7.359, 24 8.500 C 23.450 8.840, 23 8.572, 23 7.904 C 23 7.151, 22.241 7.377, 21 8.500 C 19.900 9.495, 19 10.985, 19 11.810 C 19 13.087, 18.728 13.064, 17.171 11.655 C 16.165 10.745, 14.226 10, 12.862 10 C 8.805 10, 6.657 7.790, 7.189 4.163 C 7.445 2.423, 7.541 1, 7.404 1 C 7.266 1, 5.784 2.152, 4.111 3.560 M 11 5 C 11 5.733, 11.300 6.033, 11.667 5.667 C 12.033 5.300, 12.033 4.700, 11.667 4.333 C 11.300 3.967, 11 4.267, 11 5 M 14 5 C 14 5.733, 14.300 6.033, 14.667 5.667 C 15.033 5.300, 15.033 4.700, 14.667 4.333 C 14.300 3.967, 14 4.267, 14 5 M 17 5 C 17 5.550, 17.450 6, 18 6 C 18.550 6, 19 5.550, 19 5 C 19 4.450, 18.550 4, 18 4 C 17.450 4, 17 4.450, 17 5 M 0.252 12.500 C 0.263 14.700, 0.468 15.482, 0.707 14.238 C 0.946 12.994, 0.937 11.194, 0.687 10.238 C 0.437 9.282, 0.241 10.300, 0.252 12.500 M 5 14 C 5 14.733, 5.300 15.033, 5.667 14.667 C 6.033 14.300, 6.033 13.700, 5.667 13.333 C 5.300 12.967, 5 13.267, 5 14 M 9 14 C 9 14.733, 9.300 15.033, 9.667 14.667 C 10.033 14.300, 10.033 13.700, 9.667 13.333 C 9.300 12.967, 9 13.267, 9 14 M 12 14 C 12 14.733, 12.300 15.033, 12.667 14.667 C 13.033 14.300, 13.033 13.700, 12.667 13.333 C 12.300 12.967, 12 13.267, 12 14" stroke="none" fill="#fbd544" fill-rule="evenodd"/></svg>